<svg width="24" height="24" viewBox="0 0 24 24" fill="none" xmlns="http://www.w3.org/2000/svg">
<path d="M3 9V21H21V4.5H18V5.25C18 5.44891 17.921 5.63968 17.7803 5.78033C17.6397 5.92098 17.4489 6 17.25 6C17.0511 6 16.8603 5.92098 16.7197 5.78033C16.579 5.63968 16.5 5.44891 16.5 5.25V4.5H7.5V5.25C7.5 5.44891 7.42098 5.63968 7.28033 5.78033C7.13968 5.92098 6.94891 6 6.75 6C6.55109 6 6.36032 5.92098 6.21967 5.78033C6.07902 5.63968 6 5.44891 6 5.25V4.5H3V7.5H21V9H3ZM7.5 3H16.5V2.25C16.5 2.05109 16.579 1.86032 16.7197 1.71967C16.8603 1.57902 17.0511 1.5 17.25 1.5C17.4489 1.5 17.6397 1.57902 17.7803 1.71967C17.921 1.86032 18 2.05109 18 2.25V3H21.75C21.9489 3 22.1397 3.07902 22.2803 3.21967C22.421 3.36032 22.5 3.55109 22.5 3.75V21.75C22.5 21.9489 22.421 22.1397 22.2803 22.2803C22.1397 22.421 21.9489 22.5 21.75 22.5H2.25C2.05109 22.5 1.86032 22.421 1.71967 22.2803C1.57902 22.1397 1.5 21.9489 1.5 21.75V3.75C1.5 3.55109 1.57902 3.36032 1.71967 3.21967C1.86032 3.07902 2.05109 3 2.25 3H6V2.25C6 2.05109 6.07902 1.86032 6.21967 1.71967C6.36032 1.57902 6.55109 1.5 6.75 1.5C6.94891 1.5 7.13968 1.57902 7.28033 1.71967C7.42098 1.86032 7.5 2.05109 7.5 2.25V3ZM6.75 12H8.25C8.44891 12 8.63968 12.079 8.78033 12.2197C8.92098 12.3603 9 12.5511 9 12.75C9 12.9489 8.92098 13.1397 8.78033 13.2803C8.63968 13.421 8.44891 13.5 8.25 13.5H6.75C6.55109 13.5 6.36032 13.421 6.21967 13.2803C6.07902 13.1397 6 12.9489 6 12.75C6 12.5511 6.07902 12.3603 6.21967 12.2197C6.36032 12.079 6.55109 12 6.75 12ZM6.75 16.5H8.25C8.44891 16.5 8.63968 16.579 8.78033 16.7197C8.92098 16.8603 9 17.0511 9 17.25C9 17.4489 8.92098 17.6397 8.78033 17.7803C8.63968 17.921 8.44891 18 8.25 18H6.75C6.55109 18 6.36032 17.921 6.21967 17.7803C6.07902 17.6397 6 17.4489 6 17.25C6 17.0511 6.07902 16.8603 6.21967 16.7197C6.36032 16.579 6.55109 16.5 6.75 16.5ZM11.25 12H12.75C12.9489 12 13.1397 12.079 13.2803 12.2197C13.421 12.3603 13.5 12.5511 13.5 12.75C13.5 12.9489 13.421 13.1397 13.2803 13.2803C13.1397 13.421 12.9489 13.5 12.75 13.5H11.25C11.0511 13.5 10.8603 13.421 10.7197 13.2803C10.579 13.1397 10.5 12.9489 10.5 12.75C10.5 12.5511 10.579 12.3603 10.7197 12.2197C10.8603 12.079 11.0511 12 11.25 12ZM11.25 16.5H12.75C12.9489 16.5 13.1397 16.579 13.2803 16.7197C13.421 16.8603 13.5 17.0511 13.5 17.25C13.5 17.4489 13.421 17.6397 13.2803 17.7803C13.1397 17.921 12.9489 18 12.75 18H11.25C11.0511 18 10.8603 17.921 10.7197 17.7803C10.579 17.6397 10.5 17.4489 10.5 17.25C10.5 17.0511 10.579 16.8603 10.7197 16.7197C10.8603 16.579 11.0511 16.5 11.25 16.5ZM15.75 12H17.25C17.4489 12 17.6397 12.079 17.7803 12.2197C17.921 12.3603 18 12.5511 18 12.75C18 12.9489 17.921 13.1397 17.7803 13.2803C17.6397 13.421 17.4489 13.5 17.25 13.5H15.75C15.5511 13.5 15.3603 13.421 15.2197 13.2803C15.079 13.1397 15 12.9489 15 12.75C15 12.5511 15.079 12.3603 15.2197 12.2197C15.3603 12.079 15.5511 12 15.75 12ZM15.75 16.5H17.25C17.4489 16.5 17.6397 16.579 17.7803 16.7197C17.921 16.8603 18 17.0511 18 17.25C18 17.4489 17.921 17.6397 17.7803 17.7803C17.6397 17.921 17.4489 18 17.25 18H15.75C15.5511 18 15.3603 17.921 15.2197 17.7803C15.079 17.6397 15 17.4489 15 17.25C15 17.0511 15.079 16.8603 15.2197 16.7197C15.3603 16.579 15.5511 16.5 15.75 16.5Z" fill="#1E1E1E"/>
</svg>
