<svg width="32" height="32" viewBox="0 0 32 32" fill="none" xmlns="http://www.w3.org/2000/svg">
<path d="M0 16C0 7.16344 7.16344 0 16 0C24.8366 0 32 7.16344 32 16C32 24.8366 24.8366 32 16 32C7.16344 32 0 24.8366 0 16Z" fill="#0FBA7E"/>
<path fill-rule="evenodd" clip-rule="evenodd" d="M11.5858 7.58579C11.9609 7.21071 12.4696 7 13 7H19C19.5304 7 20.0391 7.21071 20.4142 7.58579C20.7893 7.96086 21 8.46957 21 9C21 9.26522 21.1054 9.51957 21.2929 9.70711C21.4804 9.89464 21.7348 10 22 10H23C23.7957 10 24.5587 10.3161 25.1213 10.8787C25.6839 11.4413 26 12.2043 26 13V22C26 22.7957 25.6839 23.5587 25.1213 24.1213C24.5587 24.6839 23.7957 25 23 25H9C8.20435 25 7.44129 24.6839 6.87868 24.1213C6.31607 23.5587 6 22.7956 6 22V13C6 12.2044 6.31607 11.4413 6.87868 10.8787C7.44129 10.3161 8.20435 10 9 10H10C10.2652 10 10.5196 9.89464 10.7071 9.70711C10.8946 9.51957 11 9.26522 11 9C11 8.46957 11.2107 7.96086 11.5858 7.58579ZM19 9L13 9C13 9.79565 12.6839 10.5587 12.1213 11.1213C11.5587 11.6839 10.7956 12 10 12H9C8.73478 12 8.48043 12.1054 8.29289 12.2929C8.10536 12.4804 8 12.7348 8 13V22C8 22.2652 8.10536 22.5196 8.29289 22.7071C8.48043 22.8946 8.73478 23 9 23H23C23.2652 23 23.5196 22.8946 23.7071 22.7071C23.8946 22.5196 24 22.2652 24 22V13C24 12.7348 23.8946 12.4804 23.7071 12.2929C23.5196 12.1054 23.2652 12 23 12H22C21.2044 12 20.4413 11.6839 19.8787 11.1213C19.3161 10.5587 19 9.79565 19 9ZM16 15C14.8954 15 14 15.8954 14 17C14 18.1046 14.8954 19 16 19C17.1046 19 18 18.1046 18 17C18 15.8954 17.1046 15 16 15ZM12 17C12 14.7909 13.7909 13 16 13C18.2091 13 20 14.7909 20 17C20 19.2091 18.2091 21 16 21C13.7909 21 12 19.2091 12 17Z" fill="white"/>
<path fill-rule="evenodd" clip-rule="evenodd" d="M11.5858 7.58579C11.9609 7.21071 12.4696 7 13 7H19C19.5304 7 20.0391 7.21071 20.4142 7.58579C20.7893 7.96086 21 8.46957 21 9C21 9.26522 21.1054 9.51957 21.2929 9.70711C21.4804 9.89464 21.7348 10 22 10H23C23.7957 10 24.5587 10.3161 25.1213 10.8787C25.6839 11.4413 26 12.2043 26 13V22C26 22.7957 25.6839 23.5587 25.1213 24.1213C24.5587 24.6839 23.7957 25 23 25H9C8.20435 25 7.44129 24.6839 6.87868 24.1213C6.31607 23.5587 6 22.7956 6 22V13C6 12.2044 6.31607 11.4413 6.87868 10.8787C7.44129 10.3161 8.20435 10 9 10H10C10.2652 10 10.5196 9.89464 10.7071 9.70711C10.8946 9.51957 11 9.26522 11 9C11 8.46957 11.2107 7.96086 11.5858 7.58579ZM19 9L13 9C13 9.79565 12.6839 10.5587 12.1213 11.1213C11.5587 11.6839 10.7956 12 10 12H9C8.73478 12 8.48043 12.1054 8.29289 12.2929C8.10536 12.4804 8 12.7348 8 13V22C8 22.2652 8.10536 22.5196 8.29289 22.7071C8.48043 22.8946 8.73478 23 9 23H23C23.2652 23 23.5196 22.8946 23.7071 22.7071C23.8946 22.5196 24 22.2652 24 22V13C24 12.7348 23.8946 12.4804 23.7071 12.2929C23.5196 12.1054 23.2652 12 23 12H22C21.2044 12 20.4413 11.6839 19.8787 11.1213C19.3161 10.5587 19 9.79565 19 9ZM16 15C14.8954 15 14 15.8954 14 17C14 18.1046 14.8954 19 16 19C17.1046 19 18 18.1046 18 17C18 15.8954 17.1046 15 16 15ZM12 17C12 14.7909 13.7909 13 16 13C18.2091 13 20 14.7909 20 17C20 19.2091 18.2091 21 16 21C13.7909 21 12 19.2091 12 17Z" fill="white"/>
</svg>
