<svg width="41" height="41" viewBox="0 0 41 41" fill="none" xmlns="http://www.w3.org/2000/svg">
<path d="M20.4996 41C31.6948 41 41 31.7147 41 20.5C41 9.30501 31.6742 0 20.479 0C9.2649 0 0 9.30501 0 20.5C0 31.7147 9.28462 41 20.4996 41ZM20.5004 37.5836C11.0126 37.5836 3.43446 29.9859 3.43446 20.5C3.43446 11.0329 10.992 3.41638 20.479 3.41638C29.9454 3.41638 37.5621 11.0338 37.5827 20.5C37.6024 29.9868 29.9651 37.5836 20.4987 37.5836M20.479 24.1376C21.4429 24.1376 21.9857 23.5948 22.0054 22.5503L22.3073 11.9385C22.3279 10.9129 21.5235 10.1497 20.4584 10.1497C19.3728 10.1497 18.6095 10.8931 18.6293 11.9179L18.8908 22.5503C18.9105 23.5751 19.474 24.1376 20.479 24.1376ZM20.479 30.6694C21.6238 30.6694 22.6486 29.745 22.6486 28.5796C22.6486 27.3937 21.6444 26.489 20.479 26.489C19.293 26.489 18.3077 27.4134 18.3077 28.5796C18.3077 29.7253 19.3127 30.6694 20.479 30.6694Z" fill="#A0A0A0"/>
</svg>
