<svg width="25" height="24" viewBox="0 0 25 24" fill="none" xmlns="http://www.w3.org/2000/svg">
<g clip-path="url(#clip0_793_5579)">
<path fill-rule="evenodd" clip-rule="evenodd" d="M22.0238 19.875C20.5959 17.4066 18.3956 15.6366 15.8278 14.7975C18.4385 13.2433 19.6892 10.1364 18.8832 7.2069C18.0772 4.27741 15.4133 2.24745 12.375 2.24745C9.33667 2.24745 6.67279 4.27741 5.86682 7.2069C5.06085 10.1364 6.31145 13.2433 8.92219 14.7975C6.35438 15.6356 4.15406 17.4056 2.72625 19.875C2.5837 20.1074 2.57853 20.3989 2.71273 20.6363C2.84694 20.8736 3.09938 21.0194 3.37202 21.0171C3.64467 21.0147 3.89457 20.8646 4.02469 20.625C5.79094 17.5725 8.91281 15.75 12.375 15.75C15.8372 15.75 18.9591 17.5725 20.7253 20.625C20.8554 20.8646 21.1053 21.0147 21.378 21.0171C21.6506 21.0194 21.9031 20.8736 22.0373 20.6363C22.1715 20.3989 22.1663 20.1074 22.0238 19.875V19.875ZM7.125 9C7.125 6.10051 9.47551 3.75 12.375 3.75C15.2745 3.75 17.625 6.10051 17.625 9C17.625 11.8995 15.2745 14.25 12.375 14.25C9.47679 14.2469 7.1281 11.8982 7.125 9V9Z" fill="#737373"/>
</g>
<defs>
<clipPath id="clip0_793_5579">
<rect width="24" height="24" fill="white" transform="translate(0.375)"/>
</clipPath>
</defs>
</svg>
