<svg width="25" height="24" viewBox="0 0 25 24" fill="none" xmlns="http://www.w3.org/2000/svg">
<path d="M17.8481 7.4006V9.73889M17.8464 4.56346C17.8184 4.56346 17.7906 4.55791 17.7647 4.54712C17.7388 4.53633 17.7153 4.52051 17.6955 4.50059C17.6757 4.48067 17.6601 4.45704 17.6495 4.43105C17.639 4.40506 17.6336 4.37723 17.6339 4.34917C17.6339 4.22917 17.7299 4.13489 17.8464 4.13489M17.8499 4.56346C17.9064 4.56301 17.9605 4.54023 18.0003 4.50009C18.0401 4.45996 18.0624 4.40571 18.0624 4.34917C18.0627 4.32111 18.0573 4.29329 18.0467 4.2673C18.0362 4.24131 18.0205 4.21767 18.0008 4.19775C17.981 4.17783 17.9575 4.16202 17.9316 4.15123C17.9057 4.14044 17.8779 4.13489 17.8499 4.13489M2.34414 22.0526H22.9276M4.28471 11.7069C4.28471 12.1434 4.37069 12.5756 4.53774 12.9789C4.70478 13.3822 4.94963 13.7486 5.25829 14.0573C5.56695 14.366 5.93338 14.6108 6.33667 14.7779C6.73996 14.9449 7.1722 15.0309 7.60871 15.0309C8.04522 15.0309 8.47746 14.9449 8.88075 14.7779C9.28404 14.6108 9.65047 14.366 9.95913 14.0573C10.2678 13.7486 10.5126 13.3822 10.6797 12.9789C10.8467 12.5756 10.9327 12.1434 10.9327 11.7069C10.9327 11.2704 10.8467 10.8381 10.6797 10.4348C10.5126 10.0316 10.2678 9.66513 9.95913 9.35647C9.65047 9.0478 9.28404 8.80296 8.88075 8.63591C8.47746 8.46887 8.04522 8.38289 7.60871 8.38289C7.1722 8.38289 6.73996 8.46887 6.33667 8.63591C5.93338 8.80296 5.56695 9.0478 5.25829 9.35647C4.94963 9.66513 4.70478 10.0316 4.53774 10.4348C4.37069 10.8381 4.28471 11.2704 4.28471 11.7069Z" stroke="#737373" stroke-width="1.71429" stroke-linecap="round" stroke-linejoin="round"/>
<path d="M2.34071 22.0543V20.2989C2.34071 18.902 2.89564 17.5623 3.88342 16.5745C4.8712 15.5867 6.21092 15.0318 7.60786 15.0318C9.00479 15.0318 10.3445 15.5867 11.3323 16.5745C12.3201 17.5623 12.875 18.902 12.875 20.2989V22.0543M13.5504 11.5132C14.5466 12.488 15.8469 13.0918 17.2344 13.2238C18.6219 13.3558 20.0127 13.0081 21.1749 12.2387C22.337 11.4693 23.2003 10.3247 23.6205 8.99576C24.0408 7.66686 23.9927 6.23403 23.4843 4.93629C22.9759 3.63854 22.038 2.55434 20.8269 1.86454C19.6157 1.17474 18.2047 0.921041 16.8292 1.14577C15.4537 1.37049 14.1968 2.06005 13.2682 3.09942C12.3395 4.13879 11.7954 5.46513 11.7264 6.8572" stroke="#737373" stroke-width="1.71429" stroke-linecap="round" stroke-linejoin="round"/>
</svg>
