<svg width="25" height="24" viewBox="0 0 25 24" fill="none" xmlns="http://www.w3.org/2000/svg">
<path d="M13.625 14.25C13.625 14.0511 13.704 13.8603 13.8447 13.7197C13.9853 13.579 14.1761 13.5 14.375 13.5H17.375C17.5739 13.5 17.7647 13.579 17.9053 13.7197C18.046 13.8603 18.125 14.0511 18.125 14.25V17.25C18.125 17.4489 18.046 17.6397 17.9053 17.7803C17.7647 17.921 17.5739 18 17.375 18H14.375C14.1761 18 13.9853 17.921 13.8447 17.7803C13.704 17.6397 13.625 17.4489 13.625 17.25V14.25ZM15.125 16.5H16.625V15H15.125V16.5ZM6.407 1.665L2.657 4.665C2.408 4.863 2.375 5.205 2.375 5.505V8.25C2.375 9.0945 2.654 9.873 3.125 10.5V21.75C3.125 21.9489 3.20402 22.1397 3.34467 22.2803C3.48532 22.421 3.67609 22.5 3.875 22.5H20.375C20.5739 22.5 20.7647 22.421 20.9053 22.2803C21.046 22.1397 21.125 21.9489 21.125 21.75V10.5C21.596 9.873 21.875 9.0945 21.875 8.25V5.499C21.875 5.199 21.842 4.863 21.593 4.665L17.843 1.665C17.7102 1.55849 17.5452 1.5003 17.375 1.5H6.875C6.7048 1.5003 6.53976 1.55849 6.407 1.665ZM8.375 6V8.25C8.375 8.84674 8.13795 9.41903 7.71599 9.84099C7.29403 10.2629 6.72174 10.5 6.125 10.5C5.52826 10.5 4.95597 10.2629 4.53401 9.84099C4.11205 9.41903 3.875 8.84674 3.875 8.25V6H8.375ZM14.375 6V8.25C14.375 8.84674 14.1379 9.41903 13.716 9.84099C13.294 10.2629 12.7217 10.5 12.125 10.5C11.5283 10.5 10.956 10.2629 10.534 9.84099C10.1121 9.41903 9.875 8.84674 9.875 8.25V6H14.375ZM20.375 6V8.25C20.375 8.84674 20.1379 9.41903 19.716 9.84099C19.294 10.2629 18.7217 10.5 18.125 10.5C17.5283 10.5 16.956 10.2629 16.534 9.84099C16.1121 9.41903 15.875 8.84674 15.875 8.25V6H20.375ZM9.1685 3L8.606 4.5H5.2625L7.1375 3H9.1685ZM10.208 4.5L10.7705 3H13.46L13.9595 4.5H10.208ZM15.041 3H17.111L18.986 4.5H15.5405L15.041 3ZM19.625 11.688V21H12.125V14.25C12.125 14.0511 12.046 13.8603 11.9053 13.7197C11.7647 13.579 11.5739 13.5 11.375 13.5H6.875C6.67609 13.5 6.48532 13.579 6.34467 13.7197C6.20402 13.8603 6.125 14.0511 6.125 14.25V21H4.625V11.688C5.39908 12.0268 6.26502 12.0939 7.08202 11.8782C7.89903 11.6625 8.61904 11.1768 9.125 10.5C9.809 11.4105 10.898 12 12.125 12C13.352 12 14.441 11.4105 15.125 10.5C15.631 11.1768 16.351 11.6625 17.168 11.8782C17.985 12.0939 18.8509 12.0268 19.625 11.688ZM10.625 21H7.625V15H10.625V21Z" fill="#737373"/>
</svg>
