<svg width="26" height="24" viewBox="0 0 26 24" fill="none" xmlns="http://www.w3.org/2000/svg">
<g clip-path="url(#clip0_793_5562)">
<path fill-rule="evenodd" clip-rule="evenodd" d="M21.625 10.8328V19.5C21.625 20.3284 20.9534 21 20.125 21H16.375C15.5466 21 14.875 20.3284 14.875 19.5V15.75C14.875 15.3358 14.5392 15 14.125 15H11.125C10.7108 15 10.375 15.3358 10.375 15.75V19.5C10.375 20.3284 9.70343 21 8.875 21H5.125C4.29657 21 3.625 20.3284 3.625 19.5V10.8328C3.62494 10.4131 3.80073 10.0125 4.10969 9.72844L11.6097 2.65219L11.62 2.64188C12.1922 2.1215 13.0662 2.1215 13.6384 2.64188C13.6416 2.64554 13.6451 2.64899 13.6488 2.65219L21.1488 9.72844C21.4546 10.014 21.6272 10.4144 21.625 10.8328V10.8328Z" fill="currentColor"/>
</g>
<defs>
<clipPath id="clip0_793_5562">
<rect width="24" height="24" fill="white" transform="translate(0.625)"/>
</clipPath>
</defs>
</svg>
